<svg id="visual" viewBox="0 0 900 300" width="900" height="300" xmlns="http://www.w3.org/2000/svg" xmlns:xlink="http://www.w3.org/1999/xlink" version="1.1"><rect x="0" y="0" width="900" height="300" fill="#264653"></rect><path d="M0 50L8.8 47.2C17.7 44.3 35.3 38.7 53 38.5C70.7 38.3 88.3 43.7 106 48C123.7 52.3 141.3 55.7 159 53.8C176.7 52 194.3 45 212 39.5C229.7 34 247.3 30 265 28C282.7 26 300.3 26 318 29C335.7 32 353.3 38 371 40.7C388.7 43.3 406.3 42.7 423.8 48.2C441.3 53.7 458.7 65.3 476.2 66.5C493.7 67.7 511.3 58.3 529 58.5C546.7 58.7 564.3 68.3 582 74C599.7 79.7 617.3 81.3 635 82.5C652.7 83.7 670.3 84.3 688 74.5C705.7 64.7 723.3 44.3 741 43.2C758.7 42 776.3 60 794 66.2C811.7 72.3 829.3 66.7 847 58C864.7 49.3 882.3 37.7 891.2 31.8L900 26L900 0L891.2 0C882.3 0 864.7 0 847 0C829.3 0 811.7 0 794 0C776.3 0 758.7 0 741 0C723.3 0 705.7 0 688 0C670.3 0 652.7 0 635 0C617.3 0 599.7 0 582 0C564.3 0 546.7 0 529 0C511.3 0 493.7 0 476.2 0C458.7 0 441.3 0 423.8 0C406.3 0 388.7 0 371 0C353.3 0 335.7 0 318 0C300.3 0 282.7 0 265 0C247.3 0 229.7 0 212 0C194.3 0 176.7 0 159 0C141.3 0 123.7 0 106 0C88.3 0 70.7 0 53 0C35.3 0 17.7 0 8.8 0L0 0Z" fill="#e76f51"></path><path d="M0 62L8.8 58.8C17.7 55.7 35.3 49.3 53 42.2C70.7 35 88.3 27 106 26C123.7 25 141.3 31 159 37.5C176.7 44 194.3 51 212 53C229.7 55 247.3 52 265 45.8C282.7 39.7 300.3 30.3 318 29.5C335.7 28.7 353.3 36.3 371 42.5C388.7 48.7 406.3 53.3 423.8 56.2C441.3 59 458.7 60 476.2 53.5C493.7 47 511.3 33 529 31C546.7 29 564.3 39 582 44.7C599.7 50.3 617.3 51.7 635 50.8C652.7 50 670.3 47 688 45C705.7 43 723.3 42 741 44.7C758.7 47.3 776.3 53.7 794 58.3C811.7 63 829.3 66 847 61.7C864.7 57.3 882.3 45.7 891.2 39.8L900 34L900 0L891.2 0C882.3 0 864.7 0 847 0C829.3 0 811.7 0 794 0C776.3 0 758.7 0 741 0C723.3 0 705.7 0 688 0C670.3 0 652.7 0 635 0C617.3 0 599.7 0 582 0C564.3 0 546.7 0 529 0C511.3 0 493.7 0 476.2 0C458.7 0 441.3 0 423.8 0C406.3 0 388.7 0 371 0C353.3 0 335.7 0 318 0C300.3 0 282.7 0 265 0C247.3 0 229.7 0 212 0C194.3 0 176.7 0 159 0C141.3 0 123.7 0 106 0C88.3 0 70.7 0 53 0C35.3 0 17.7 0 8.8 0L0 0Z" fill="#eb8550"></path><path d="M0 53L8.8 48C17.7 43 35.3 33 53 30.3C70.7 27.7 88.3 32.3 106 33.3C123.7 34.3 141.3 31.7 159 33.5C176.7 35.3 194.3 41.7 212 41.3C229.7 41 247.3 34 265 35C282.7 36 300.3 45 318 47.5C335.7 50 353.3 46 371 40.7C388.7 35.3 406.3 28.7 423.8 27.2C441.3 25.7 458.7 29.3 476.2 30.5C493.7 31.7 511.3 30.3 529 29C546.7 27.7 564.3 26.3 582 30.7C599.7 35 617.3 45 635 46C652.7 47 670.3 39 688 34.3C705.7 29.7 723.3 28.3 741 28.5C758.7 28.7 776.3 30.3 794 33.7C811.7 37 829.3 42 847 44.5C864.7 47 882.3 47 891.2 47L900 47L900 0L891.2 0C882.3 0 864.7 0 847 0C829.3 0 811.7 0 794 0C776.3 0 758.7 0 741 0C723.3 0 705.7 0 688 0C670.3 0 652.7 0 635 0C617.3 0 599.7 0 582 0C564.3 0 546.7 0 529 0C511.3 0 493.7 0 476.2 0C458.7 0 441.3 0 423.8 0C406.3 0 388.7 0 371 0C353.3 0 335.7 0 318 0C300.3 0 282.7 0 265 0C247.3 0 229.7 0 212 0C194.3 0 176.7 0 159 0C141.3 0 123.7 0 106 0C88.3 0 70.7 0 53 0C35.3 0 17.7 0 8.8 0L0 0Z" fill="#ec9b54"></path><path d="M0 41L8.8 40.3C17.7 39.7 35.3 38.3 53 33.5C70.7 28.7 88.3 20.3 106 16C123.7 11.7 141.3 11.3 159 15.2C176.7 19 194.3 27 212 31.7C229.7 36.3 247.3 37.7 265 36.3C282.7 35 300.3 31 318 28.7C335.7 26.3 353.3 25.7 371 25.3C388.7 25 406.3 25 423.8 27.2C441.3 29.3 458.7 33.7 476.2 31.5C493.7 29.3 511.3 20.7 529 21.3C546.7 22 564.3 32 582 33.2C599.7 34.3 617.3 26.7 635 21.5C652.7 16.3 670.3 13.7 688 13.2C705.7 12.7 723.3 14.3 741 15.8C758.7 17.3 776.3 18.7 794 19.3C811.7 20 829.3 20 847 23.7C864.7 27.3 882.3 34.7 891.2 38.3L900 42L900 0L891.2 0C882.3 0 864.7 0 847 0C829.3 0 811.7 0 794 0C776.3 0 758.7 0 741 0C723.3 0 705.7 0 688 0C670.3 0 652.7 0 635 0C617.3 0 599.7 0 582 0C564.3 0 546.7 0 529 0C511.3 0 493.7 0 476.2 0C458.7 0 441.3 0 423.8 0C406.3 0 388.7 0 371 0C353.3 0 335.7 0 318 0C300.3 0 282.7 0 265 0C247.3 0 229.7 0 212 0C194.3 0 176.7 0 159 0C141.3 0 123.7 0 106 0C88.3 0 70.7 0 53 0C35.3 0 17.7 0 8.8 0L0 0Z" fill="#ebb05d"></path><path d="M0 23L8.8 20.7C17.7 18.3 35.3 13.7 53 14.2C70.7 14.7 88.3 20.3 106 21.2C123.7 22 141.3 18 159 16.8C176.7 15.7 194.3 17.3 212 15.8C229.7 14.3 247.3 9.7 265 9C282.7 8.3 300.3 11.7 318 13.2C335.7 14.7 353.3 14.3 371 12.7C388.7 11 406.3 8 423.8 9.3C441.3 10.7 458.7 16.3 476.2 18.3C493.7 20.3 511.3 18.7 529 16.8C546.7 15 564.3 13 582 11.2C599.7 9.3 617.3 7.7 635 9.2C652.7 10.7 670.3 15.3 688 16.2C705.7 17 723.3 14 741 14.2C758.7 14.3 776.3 17.7 794 19.2C811.7 20.7 829.3 20.3 847 18.8C864.7 17.3 882.3 14.7 891.2 13.3L900 12L900 0L891.2 0C882.3 0 864.7 0 847 0C829.3 0 811.7 0 794 0C776.3 0 758.7 0 741 0C723.3 0 705.7 0 688 0C670.3 0 652.7 0 635 0C617.3 0 599.7 0 582 0C564.3 0 546.7 0 529 0C511.3 0 493.7 0 476.2 0C458.7 0 441.3 0 423.8 0C406.3 0 388.7 0 371 0C353.3 0 335.7 0 318 0C300.3 0 282.7 0 265 0C247.3 0 229.7 0 212 0C194.3 0 176.7 0 159 0C141.3 0 123.7 0 106 0C88.3 0 70.7 0 53 0C35.3 0 17.7 0 8.8 0L0 0Z" fill="#e9c46a"></path></svg>