<svg id="visual" viewBox="0 0 900 300" width="900" height="300" xmlns="http://www.w3.org/2000/svg" xmlns:xlink="http://www.w3.org/1999/xlink" version="1.1"><rect x="0" y="0" width="900" height="300" fill="#264653"></rect><path d="M0 212L10 214.5C20 217 40 222 60 215.8C80 209.7 100 192.3 120 182.2C140 172 160 169 180 178.5C200 188 220 210 240 216.7C260 223.3 280 214.7 300 213.2C320 211.7 340 217.3 360 216C380 214.7 400 206.3 420 196.7C440 187 460 176 480 171.5C500 167 520 169 540 170.3C560 171.7 580 172.3 600 178C620 183.7 640 194.3 660 196.7C680 199 700 193 720 183.7C740 174.3 760 161.7 780 163.5C800 165.3 820 181.7 840 194.2C860 206.7 880 215.3 890 219.7L900 224L900 0L890 0C880 0 860 0 840 0C820 0 800 0 780 0C760 0 740 0 720 0C700 0 680 0 660 0C640 0 620 0 600 0C580 0 560 0 540 0C520 0 500 0 480 0C460 0 440 0 420 0C400 0 380 0 360 0C340 0 320 0 300 0C280 0 260 0 240 0C220 0 200 0 180 0C160 0 140 0 120 0C100 0 80 0 60 0C40 0 20 0 10 0L0 0Z" fill="#eb8550"></path><path d="M0 155L10 152.8C20 150.7 40 146.3 60 144C80 141.7 100 141.3 120 139.5C140 137.7 160 134.3 180 132.2C200 130 220 129 240 129.8C260 130.7 280 133.3 300 142.5C320 151.7 340 167.3 360 167.8C380 168.3 400 153.7 420 145.5C440 137.3 460 135.7 480 134.3C500 133 520 132 540 135.7C560 139.3 580 147.7 600 148C620 148.3 640 140.7 660 135C680 129.3 700 125.7 720 135.2C740 144.7 760 167.3 780 167.7C800 168 820 146 840 137.7C860 129.3 880 134.7 890 137.3L900 140L900 0L890 0C880 0 860 0 840 0C820 0 800 0 780 0C760 0 740 0 720 0C700 0 680 0 660 0C640 0 620 0 600 0C580 0 560 0 540 0C520 0 500 0 480 0C460 0 440 0 420 0C400 0 380 0 360 0C340 0 320 0 300 0C280 0 260 0 240 0C220 0 200 0 180 0C160 0 140 0 120 0C100 0 80 0 60 0C40 0 20 0 10 0L0 0Z" fill="#ec9552"></path><path d="M0 116L10 121C20 126 40 136 60 136.2C80 136.3 100 126.7 120 127.2C140 127.7 160 138.3 180 142.3C200 146.3 220 143.7 240 135.8C260 128 280 115 300 111.7C320 108.3 340 114.7 360 120C380 125.3 400 129.7 420 130.3C440 131 460 128 480 123.8C500 119.7 520 114.3 540 111.8C560 109.3 580 109.7 600 114.3C620 119 640 128 660 131.8C680 135.7 700 134.3 720 135.2C740 136 760 139 780 141.2C800 143.3 820 144.7 840 140.7C860 136.7 880 127.3 890 122.7L900 118L900 0L890 0C880 0 860 0 840 0C820 0 800 0 780 0C760 0 740 0 720 0C700 0 680 0 660 0C640 0 620 0 600 0C580 0 560 0 540 0C520 0 500 0 480 0C460 0 440 0 420 0C400 0 380 0 360 0C340 0 320 0 300 0C280 0 260 0 240 0C220 0 200 0 180 0C160 0 140 0 120 0C100 0 80 0 60 0C40 0 20 0 10 0L0 0Z" fill="#eca557"></path><path d="M0 103L10 103.8C20 104.7 40 106.3 60 104.2C80 102 100 96 120 92.2C140 88.3 160 86.7 180 85.2C200 83.7 220 82.3 240 80.5C260 78.7 280 76.3 300 79C320 81.7 340 89.3 360 94.5C380 99.7 400 102.3 420 96.2C440 90 460 75 480 71.2C500 67.3 520 74.7 540 82.7C560 90.7 580 99.3 600 98.8C620 98.3 640 88.7 660 87.5C680 86.3 700 93.7 720 90.7C740 87.7 760 74.3 780 71.7C800 69 820 77 840 83C860 89 880 93 890 95L900 97L900 0L890 0C880 0 860 0 840 0C820 0 800 0 780 0C760 0 740 0 720 0C700 0 680 0 660 0C640 0 620 0 600 0C580 0 560 0 540 0C520 0 500 0 480 0C460 0 440 0 420 0C400 0 380 0 360 0C340 0 320 0 300 0C280 0 260 0 240 0C220 0 200 0 180 0C160 0 140 0 120 0C100 0 80 0 60 0C40 0 20 0 10 0L0 0Z" fill="#ebb55f"></path><path d="M0 62L10 62.3C20 62.7 40 63.3 60 64.2C80 65 100 66 120 65.5C140 65 160 63 180 61.3C200 59.7 220 58.3 240 58C260 57.7 280 58.3 300 56.3C320 54.3 340 49.7 360 46.3C380 43 400 41 420 44.7C440 48.3 460 57.7 480 58C500 58.3 520 49.7 540 49.7C560 49.7 580 58.3 600 59.7C620 61 640 55 660 49.2C680 43.3 700 37.7 720 34.5C740 31.3 760 30.7 780 30.5C800 30.3 820 30.7 840 33.5C860 36.3 880 41.7 890 44.3L900 47L900 0L890 0C880 0 860 0 840 0C820 0 800 0 780 0C760 0 740 0 720 0C700 0 680 0 660 0C640 0 620 0 600 0C580 0 560 0 540 0C520 0 500 0 480 0C460 0 440 0 420 0C400 0 380 0 360 0C340 0 320 0 300 0C280 0 260 0 240 0C220 0 200 0 180 0C160 0 140 0 120 0C100 0 80 0 60 0C40 0 20 0 10 0L0 0Z" fill="#e9c46a"></path></svg>