<svg id="visual" viewBox="0 0 1600 300" width="1600" height="300" xmlns="http://www.w3.org/2000/svg" xmlns:xlink="http://www.w3.org/1999/xlink" version="1.1"><rect x="0" y="0" width="1600" height="300" fill="#264653"></rect><path d="M0 180L13.3 181.8C26.7 183.7 53.3 187.3 80 186.8C106.7 186.3 133.3 181.7 160 181.3C186.7 181 213.3 185 240 188.2C266.7 191.3 293.3 193.7 320 193.7C346.7 193.7 373.3 191.3 400 198.5C426.7 205.7 453.3 222.3 480 227.3C506.7 232.3 533.3 225.7 560 221.2C586.7 216.7 613.3 214.3 640 215.3C666.7 216.3 693.3 220.7 720 221C746.7 221.3 773.3 217.7 800 210.2C826.7 202.7 853.3 191.3 880 191C906.7 190.7 933.3 201.3 960 211C986.7 220.7 1013.3 229.3 1040 227C1066.7 224.7 1093.3 211.3 1120 202.5C1146.7 193.7 1173.3 189.3 1200 191.8C1226.7 194.3 1253.3 203.7 1280 203.2C1306.7 202.7 1333.3 192.3 1360 187.5C1386.7 182.7 1413.3 183.3 1440 183.2C1466.7 183 1493.3 182 1520 188C1546.7 194 1573.3 207 1586.7 213.5L1600 220L1600 0L1586.7 0C1573.3 0 1546.7 0 1520 0C1493.3 0 1466.7 0 1440 0C1413.3 0 1386.7 0 1360 0C1333.3 0 1306.7 0 1280 0C1253.3 0 1226.7 0 1200 0C1173.3 0 1146.7 0 1120 0C1093.3 0 1066.7 0 1040 0C1013.3 0 986.7 0 960 0C933.3 0 906.7 0 880 0C853.3 0 826.7 0 800 0C773.3 0 746.7 0 720 0C693.3 0 666.7 0 640 0C613.3 0 586.7 0 560 0C533.3 0 506.7 0 480 0C453.3 0 426.7 0 400 0C373.3 0 346.7 0 320 0C293.3 0 266.7 0 240 0C213.3 0 186.7 0 160 0C133.3 0 106.7 0 80 0C53.3 0 26.7 0 13.3 0L0 0Z" fill="#eb8550"></path><path d="M0 193L13.3 186.5C26.7 180 53.3 167 80 167.3C106.7 167.7 133.3 181.3 160 181.2C186.7 181 213.3 167 240 164C266.7 161 293.3 169 320 176.2C346.7 183.3 373.3 189.7 400 184.5C426.7 179.3 453.3 162.7 480 155.5C506.7 148.3 533.3 150.7 560 155.3C586.7 160 613.3 167 640 166C666.7 165 693.3 156 720 157.2C746.7 158.3 773.3 169.7 800 175.3C826.7 181 853.3 181 880 175.2C906.7 169.3 933.3 157.7 960 154.3C986.7 151 1013.3 156 1040 159.5C1066.7 163 1093.3 165 1120 167.5C1146.7 170 1173.3 173 1200 174.5C1226.7 176 1253.3 176 1280 176.8C1306.7 177.7 1333.3 179.3 1360 177C1386.7 174.7 1413.3 168.3 1440 169.7C1466.7 171 1493.3 180 1520 182C1546.7 184 1573.3 179 1586.7 176.5L1600 174L1600 0L1586.7 0C1573.3 0 1546.7 0 1520 0C1493.3 0 1466.7 0 1440 0C1413.3 0 1386.7 0 1360 0C1333.3 0 1306.7 0 1280 0C1253.3 0 1226.7 0 1200 0C1173.3 0 1146.7 0 1120 0C1093.3 0 1066.7 0 1040 0C1013.3 0 986.7 0 960 0C933.3 0 906.7 0 880 0C853.3 0 826.7 0 800 0C773.3 0 746.7 0 720 0C693.3 0 666.7 0 640 0C613.3 0 586.7 0 560 0C533.3 0 506.7 0 480 0C453.3 0 426.7 0 400 0C373.3 0 346.7 0 320 0C293.3 0 266.7 0 240 0C213.3 0 186.7 0 160 0C133.3 0 106.7 0 80 0C53.3 0 26.7 0 13.3 0L0 0Z" fill="#ec9552"></path><path d="M0 104L13.3 109C26.7 114 53.3 124 80 130.3C106.7 136.7 133.3 139.3 160 136C186.7 132.7 213.3 123.3 240 124.7C266.7 126 293.3 138 320 140.8C346.7 143.7 373.3 137.3 400 131.2C426.7 125 453.3 119 480 121.3C506.7 123.7 533.3 134.3 560 133.7C586.7 133 613.3 121 640 118.5C666.7 116 693.3 123 720 125.7C746.7 128.3 773.3 126.7 800 129.3C826.7 132 853.3 139 880 136.3C906.7 133.7 933.3 121.3 960 119.8C986.7 118.3 1013.3 127.7 1040 127.8C1066.7 128 1093.3 119 1120 118.2C1146.7 117.3 1173.3 124.7 1200 130.3C1226.7 136 1253.3 140 1280 136.5C1306.7 133 1333.3 122 1360 123.8C1386.7 125.7 1413.3 140.3 1440 147.2C1466.7 154 1493.3 153 1520 150.7C1546.7 148.3 1573.3 144.7 1586.7 142.8L1600 141L1600 0L1586.7 0C1573.3 0 1546.7 0 1520 0C1493.3 0 1466.7 0 1440 0C1413.3 0 1386.7 0 1360 0C1333.3 0 1306.7 0 1280 0C1253.3 0 1226.7 0 1200 0C1173.3 0 1146.7 0 1120 0C1093.3 0 1066.7 0 1040 0C1013.3 0 986.7 0 960 0C933.3 0 906.7 0 880 0C853.3 0 826.7 0 800 0C773.3 0 746.7 0 720 0C693.3 0 666.7 0 640 0C613.3 0 586.7 0 560 0C533.3 0 506.7 0 480 0C453.3 0 426.7 0 400 0C373.3 0 346.7 0 320 0C293.3 0 266.7 0 240 0C213.3 0 186.7 0 160 0C133.3 0 106.7 0 80 0C53.3 0 26.7 0 13.3 0L0 0Z" fill="#eca557"></path><path d="M0 92L13.3 93.2C26.7 94.3 53.3 96.7 80 97.7C106.7 98.7 133.3 98.3 160 96C186.7 93.7 213.3 89.3 240 86.5C266.7 83.7 293.3 82.3 320 82.5C346.7 82.7 373.3 84.3 400 85.7C426.7 87 453.3 88 480 90.3C506.7 92.7 533.3 96.3 560 99.8C586.7 103.3 613.3 106.7 640 105.7C666.7 104.7 693.3 99.3 720 94.2C746.7 89 773.3 84 800 82.8C826.7 81.7 853.3 84.3 880 89.7C906.7 95 933.3 103 960 100.8C986.7 98.7 1013.3 86.3 1040 80.8C1066.7 75.3 1093.3 76.7 1120 82.3C1146.7 88 1173.3 98 1200 97.2C1226.7 96.3 1253.3 84.7 1280 78C1306.7 71.3 1333.3 69.7 1360 75.2C1386.7 80.7 1413.3 93.3 1440 98C1466.7 102.7 1493.3 99.3 1520 95.8C1546.7 92.3 1573.3 88.7 1586.7 86.8L1600 85L1600 0L1586.7 0C1573.3 0 1546.7 0 1520 0C1493.3 0 1466.7 0 1440 0C1413.3 0 1386.7 0 1360 0C1333.3 0 1306.7 0 1280 0C1253.3 0 1226.7 0 1200 0C1173.3 0 1146.7 0 1120 0C1093.3 0 1066.7 0 1040 0C1013.3 0 986.7 0 960 0C933.3 0 906.7 0 880 0C853.3 0 826.7 0 800 0C773.3 0 746.7 0 720 0C693.3 0 666.7 0 640 0C613.3 0 586.7 0 560 0C533.3 0 506.7 0 480 0C453.3 0 426.7 0 400 0C373.3 0 346.7 0 320 0C293.3 0 266.7 0 240 0C213.3 0 186.7 0 160 0C133.3 0 106.7 0 80 0C53.3 0 26.7 0 13.3 0L0 0Z" fill="#ebb55f"></path><path d="M0 44L13.3 42.2C26.7 40.3 53.3 36.7 80 34.5C106.7 32.3 133.3 31.7 160 35.3C186.7 39 213.3 47 240 52.5C266.7 58 293.3 61 320 56.7C346.7 52.3 373.3 40.7 400 36C426.7 31.3 453.3 33.7 480 36.8C506.7 40 533.3 44 560 48.7C586.7 53.3 613.3 58.7 640 62C666.7 65.3 693.3 66.7 720 63C746.7 59.3 773.3 50.7 800 44.8C826.7 39 853.3 36 880 39.3C906.7 42.7 933.3 52.3 960 57.3C986.7 62.3 1013.3 62.7 1040 63.7C1066.7 64.7 1093.3 66.3 1120 63C1146.7 59.7 1173.3 51.3 1200 45.3C1226.7 39.3 1253.3 35.7 1280 39.3C1306.7 43 1333.3 54 1360 60C1386.7 66 1413.3 67 1440 62C1466.7 57 1493.3 46 1520 40.5C1546.7 35 1573.3 35 1586.7 35L1600 35L1600 0L1586.7 0C1573.3 0 1546.7 0 1520 0C1493.3 0 1466.7 0 1440 0C1413.3 0 1386.7 0 1360 0C1333.3 0 1306.7 0 1280 0C1253.3 0 1226.7 0 1200 0C1173.3 0 1146.7 0 1120 0C1093.3 0 1066.7 0 1040 0C1013.3 0 986.7 0 960 0C933.3 0 906.7 0 880 0C853.3 0 826.7 0 800 0C773.3 0 746.7 0 720 0C693.3 0 666.7 0 640 0C613.3 0 586.7 0 560 0C533.3 0 506.7 0 480 0C453.3 0 426.7 0 400 0C373.3 0 346.7 0 320 0C293.3 0 266.7 0 240 0C213.3 0 186.7 0 160 0C133.3 0 106.7 0 80 0C53.3 0 26.7 0 13.3 0L0 0Z" fill="#e9c46a"></path></svg>