<svg id="visual" viewBox="0 0 900 300" width="900" height="300" xmlns="http://www.w3.org/2000/svg" xmlns:xlink="http://www.w3.org/1999/xlink" version="1.1"><rect x="0" y="0" width="900" height="300" fill="#264653"></rect><path d="M0 171L10 170.3C20 169.7 40 168.3 60 165.3C80 162.3 100 157.7 120 154.5C140 151.3 160 149.7 180 157.7C200 165.7 220 183.3 240 193.8C260 204.3 280 207.7 300 199.8C320 192 340 173 360 168.7C380 164.3 400 174.7 420 174.7C440 174.7 460 164.3 480 167.5C500 170.7 520 187.3 540 188.7C560 190 580 176 600 178.2C620 180.3 640 198.7 660 200.7C680 202.7 700 188.3 720 178.7C740 169 760 164 780 165.7C800 167.3 820 175.7 840 181.5C860 187.3 880 190.7 890 192.3L900 194L900 0L890 0C880 0 860 0 840 0C820 0 800 0 780 0C760 0 740 0 720 0C700 0 680 0 660 0C640 0 620 0 600 0C580 0 560 0 540 0C520 0 500 0 480 0C460 0 440 0 420 0C400 0 380 0 360 0C340 0 320 0 300 0C280 0 260 0 240 0C220 0 200 0 180 0C160 0 140 0 120 0C100 0 80 0 60 0C40 0 20 0 10 0L0 0Z" fill="#eb8550"></path><path d="M0 119L10 127.7C20 136.3 40 153.7 60 156C80 158.3 100 145.7 120 143.2C140 140.7 160 148.3 180 157.8C200 167.3 220 178.7 240 177.2C260 175.7 280 161.3 300 161C320 160.7 340 174.3 360 173C380 171.7 400 155.3 420 143.7C440 132 460 125 480 129.5C500 134 520 150 540 157C560 164 580 162 600 161.2C620 160.3 640 160.7 660 161.5C680 162.3 700 163.7 720 159.7C740 155.7 760 146.3 780 141.7C800 137 820 137 840 139C860 141 880 145 890 147L900 149L900 0L890 0C880 0 860 0 840 0C820 0 800 0 780 0C760 0 740 0 720 0C700 0 680 0 660 0C640 0 620 0 600 0C580 0 560 0 540 0C520 0 500 0 480 0C460 0 440 0 420 0C400 0 380 0 360 0C340 0 320 0 300 0C280 0 260 0 240 0C220 0 200 0 180 0C160 0 140 0 120 0C100 0 80 0 60 0C40 0 20 0 10 0L0 0Z" fill="#ec9552"></path><path d="M0 151L10 148.5C20 146 40 141 60 141C80 141 100 146 120 147.7C140 149.3 160 147.7 180 140C200 132.3 220 118.7 240 109C260 99.3 280 93.7 300 95.5C320 97.3 340 106.7 360 113C380 119.3 400 122.7 420 122.3C440 122 460 118 480 121.5C500 125 520 136 540 139.5C560 143 580 139 600 138.3C620 137.7 640 140.3 660 135.5C680 130.7 700 118.3 720 114.8C740 111.3 760 116.7 780 113.5C800 110.3 820 98.7 840 96.8C860 95 880 103 890 107L900 111L900 0L890 0C880 0 860 0 840 0C820 0 800 0 780 0C760 0 740 0 720 0C700 0 680 0 660 0C640 0 620 0 600 0C580 0 560 0 540 0C520 0 500 0 480 0C460 0 440 0 420 0C400 0 380 0 360 0C340 0 320 0 300 0C280 0 260 0 240 0C220 0 200 0 180 0C160 0 140 0 120 0C100 0 80 0 60 0C40 0 20 0 10 0L0 0Z" fill="#eca557"></path><path d="M0 67L10 68C20 69 40 71 60 69.7C80 68.3 100 63.7 120 63C140 62.3 160 65.7 180 68.5C200 71.3 220 73.7 240 74.7C260 75.7 280 75.3 300 74.7C320 74 340 73 360 72.7C380 72.3 400 72.7 420 72.3C440 72 460 71 480 69C500 67 520 64 540 66.3C560 68.7 580 76.3 600 83.5C620 90.7 640 97.3 660 99.5C680 101.7 700 99.3 720 95.7C740 92 760 87 780 85C800 83 820 84 840 85.2C860 86.3 880 87.7 890 88.3L900 89L900 0L890 0C880 0 860 0 840 0C820 0 800 0 780 0C760 0 740 0 720 0C700 0 680 0 660 0C640 0 620 0 600 0C580 0 560 0 540 0C520 0 500 0 480 0C460 0 440 0 420 0C400 0 380 0 360 0C340 0 320 0 300 0C280 0 260 0 240 0C220 0 200 0 180 0C160 0 140 0 120 0C100 0 80 0 60 0C40 0 20 0 10 0L0 0Z" fill="#ebb55f"></path><path d="M0 35L10 36.5C20 38 40 41 60 43.8C80 46.7 100 49.3 120 51.7C140 54 160 56 180 55.2C200 54.3 220 50.7 240 48.2C260 45.7 280 44.3 300 45C320 45.7 340 48.3 360 47C380 45.7 400 40.3 420 37.3C440 34.3 460 33.7 480 33.5C500 33.3 520 33.7 540 33.2C560 32.7 580 31.3 600 31.2C620 31 640 32 660 36.3C680 40.7 700 48.3 720 49C740 49.7 760 43.3 780 43.3C800 43.3 820 49.7 840 51.2C860 52.7 880 49.3 890 47.7L900 46L900 0L890 0C880 0 860 0 840 0C820 0 800 0 780 0C760 0 740 0 720 0C700 0 680 0 660 0C640 0 620 0 600 0C580 0 560 0 540 0C520 0 500 0 480 0C460 0 440 0 420 0C400 0 380 0 360 0C340 0 320 0 300 0C280 0 260 0 240 0C220 0 200 0 180 0C160 0 140 0 120 0C100 0 80 0 60 0C40 0 20 0 10 0L0 0Z" fill="#e9c46a"></path></svg>