<svg id="visual" viewBox="0 0 900 300" width="900" height="300" xmlns="http://www.w3.org/2000/svg" xmlns:xlink="http://www.w3.org/1999/xlink" version="1.1"><rect x="0" y="0" width="900" height="300" fill="#264653"></rect><path d="M0 198L10 191C20 184 40 170 60 163.3C80 156.7 100 157.3 120 163.3C140 169.3 160 180.7 180 184C200 187.3 220 182.7 240 175.7C260 168.7 280 159.3 300 156.2C320 153 340 156 360 169.2C380 182.3 400 205.7 420 212.8C440 220 460 211 480 207.8C500 204.7 520 207.3 540 210.8C560 214.3 580 218.7 600 211.7C620 204.7 640 186.3 660 177.7C680 169 700 170 720 166.8C740 163.7 760 156.3 780 163.5C800 170.7 820 192.3 840 192C860 191.7 880 169.3 890 158.2L900 147L900 0L890 0C880 0 860 0 840 0C820 0 800 0 780 0C760 0 740 0 720 0C700 0 680 0 660 0C640 0 620 0 600 0C580 0 560 0 540 0C520 0 500 0 480 0C460 0 440 0 420 0C400 0 380 0 360 0C340 0 320 0 300 0C280 0 260 0 240 0C220 0 200 0 180 0C160 0 140 0 120 0C100 0 80 0 60 0C40 0 20 0 10 0L0 0Z" fill="#eb8550"></path><path d="M0 169L10 160.2C20 151.3 40 133.7 60 135.5C80 137.3 100 158.7 120 169.5C140 180.3 160 180.7 180 176.5C200 172.3 220 163.7 240 153.5C260 143.3 280 131.7 300 132.7C320 133.7 340 147.3 360 155.7C380 164 400 167 420 166C440 165 460 160 480 159.5C500 159 520 163 540 161.3C560 159.7 580 152.3 600 145.2C620 138 640 131 660 136.8C680 142.7 700 161.3 720 168.3C740 175.3 760 170.7 780 167.2C800 163.7 820 161.3 840 163.5C860 165.7 880 172.3 890 175.7L900 179L900 0L890 0C880 0 860 0 840 0C820 0 800 0 780 0C760 0 740 0 720 0C700 0 680 0 660 0C640 0 620 0 600 0C580 0 560 0 540 0C520 0 500 0 480 0C460 0 440 0 420 0C400 0 380 0 360 0C340 0 320 0 300 0C280 0 260 0 240 0C220 0 200 0 180 0C160 0 140 0 120 0C100 0 80 0 60 0C40 0 20 0 10 0L0 0Z" fill="#ec9552"></path><path d="M0 125L10 122.3C20 119.7 40 114.3 60 115.8C80 117.3 100 125.7 120 126C140 126.3 160 118.7 180 118C200 117.3 220 123.7 240 126.7C260 129.7 280 129.3 300 130.7C320 132 340 135 360 129.7C380 124.3 400 110.7 420 103C440 95.3 460 93.7 480 94.7C500 95.7 520 99.3 540 100.7C560 102 580 101 600 108.5C620 116 640 132 660 140.2C680 148.3 700 148.7 720 148.2C740 147.7 760 146.3 780 140.5C800 134.7 820 124.3 840 119.8C860 115.3 880 116.7 890 117.3L900 118L900 0L890 0C880 0 860 0 840 0C820 0 800 0 780 0C760 0 740 0 720 0C700 0 680 0 660 0C640 0 620 0 600 0C580 0 560 0 540 0C520 0 500 0 480 0C460 0 440 0 420 0C400 0 380 0 360 0C340 0 320 0 300 0C280 0 260 0 240 0C220 0 200 0 180 0C160 0 140 0 120 0C100 0 80 0 60 0C40 0 20 0 10 0L0 0Z" fill="#eca557"></path><path d="M0 109L10 102.8C20 96.7 40 84.3 60 78.2C80 72 100 72 120 75C140 78 160 84 180 86.7C200 89.3 220 88.7 240 89.5C260 90.3 280 92.7 300 88.7C320 84.7 340 74.3 360 72.5C380 70.7 400 77.3 420 80C440 82.7 460 81.3 480 82.2C500 83 520 86 540 89.8C560 93.7 580 98.3 600 99.7C620 101 640 99 660 96.5C680 94 700 91 720 89.8C740 88.7 760 89.3 780 92.3C800 95.3 820 100.7 840 102.3C860 104 880 102 890 101L900 100L900 0L890 0C880 0 860 0 840 0C820 0 800 0 780 0C760 0 740 0 720 0C700 0 680 0 660 0C640 0 620 0 600 0C580 0 560 0 540 0C520 0 500 0 480 0C460 0 440 0 420 0C400 0 380 0 360 0C340 0 320 0 300 0C280 0 260 0 240 0C220 0 200 0 180 0C160 0 140 0 120 0C100 0 80 0 60 0C40 0 20 0 10 0L0 0Z" fill="#ebb55f"></path><path d="M0 33L10 37C20 41 40 49 60 54.2C80 59.3 100 61.7 120 57.5C140 53.3 160 42.7 180 39.7C200 36.7 220 41.3 240 46C260 50.7 280 55.3 300 54.5C320 53.7 340 47.3 360 44.3C380 41.3 400 41.7 420 45.8C440 50 460 58 480 56.2C500 54.3 520 42.7 540 37.3C560 32 580 33 600 35.2C620 37.3 640 40.7 660 42C680 43.3 700 42.7 720 46.2C740 49.7 760 57.3 780 58.3C800 59.3 820 53.7 840 49.3C860 45 880 42 890 40.5L900 39L900 0L890 0C880 0 860 0 840 0C820 0 800 0 780 0C760 0 740 0 720 0C700 0 680 0 660 0C640 0 620 0 600 0C580 0 560 0 540 0C520 0 500 0 480 0C460 0 440 0 420 0C400 0 380 0 360 0C340 0 320 0 300 0C280 0 260 0 240 0C220 0 200 0 180 0C160 0 140 0 120 0C100 0 80 0 60 0C40 0 20 0 10 0L0 0Z" fill="#e9c46a"></path></svg>